<mxfile host="app.diagrams.net" modified="2023-11-27T12:42:43.987Z" agent="Mozilla/5.0 (X11; Linux x86_64; rv:109.0) Gecko/20100101 Firefox/115.0" etag="fizGNQm72Q_to8_q5YS_" version="22.1.4" type="github">
  <diagram name="Page-1" id="efa7a0a1-bf9b-a30e-e6df-94a7791c09e9">
    <mxGraphModel dx="1062" dy="549" grid="1" gridSize="10" guides="1" tooltips="1" connect="1" arrows="1" fold="1" page="1" pageScale="1" pageWidth="826" pageHeight="1169" background="none" math="0" shadow="0">
      <root>
        <mxCell id="0" />
        <mxCell id="1" parent="0" />
        <mxCell id="25" value="&lt;p style=&quot;margin: 0px; margin-top: 4px; text-align: center; text-decoration: underline;&quot;&gt;&lt;strong&gt;Watcher&lt;/strong&gt;&lt;/p&gt;&lt;hr&gt;&lt;p style=&quot;margin: 0px; margin-left: 8px;&quot;&gt;idWatcher&lt;/p&gt;&lt;p style=&quot;margin: 0px; margin-left: 8px;&quot;&gt;prenom_w&lt;br&gt;nom_w&lt;br&gt;&lt;/p&gt;" style="verticalAlign=top;align=left;overflow=fill;fontSize=12;fontFamily=Helvetica;html=1;strokeColor=#003366;shadow=1;fillColor=#D4E1F5;fontColor=#003366" parent="1" vertex="1">
          <mxGeometry x="93" y="320" width="160" height="78.36" as="geometry" />
        </mxCell>
        <mxCell id="9ypPNHimMX1hr6WDNxtJ-116" value="&lt;p style=&quot;margin: 0px; margin-top: 4px; text-align: center; text-decoration: underline;&quot;&gt;&lt;strong&gt;Vidéo&lt;/strong&gt;&lt;/p&gt;&lt;hr&gt;&lt;p style=&quot;margin: 0px; margin-left: 8px;&quot;&gt;idVidéo&lt;/p&gt;&lt;p style=&quot;margin: 0px; margin-left: 8px;&quot;&gt;titre&lt;br&gt;&lt;/p&gt;" style="verticalAlign=top;align=left;overflow=fill;fontSize=12;fontFamily=Helvetica;html=1;strokeColor=#003366;shadow=1;fillColor=#D4E1F5;fontColor=#003366" vertex="1" parent="1">
          <mxGeometry x="333" y="325" width="160" height="68.36" as="geometry" />
        </mxCell>
        <mxCell id="9ypPNHimMX1hr6WDNxtJ-120" value="" style="endArrow=none;html=1;rounded=0;exitX=1;exitY=0.5;exitDx=0;exitDy=0;entryX=0;entryY=0.5;entryDx=0;entryDy=0;" edge="1" parent="1" source="25" target="9ypPNHimMX1hr6WDNxtJ-116">
          <mxGeometry width="50" height="50" relative="1" as="geometry">
            <mxPoint x="353" y="508.36" as="sourcePoint" />
            <mxPoint x="403" y="458.36" as="targetPoint" />
          </mxGeometry>
        </mxCell>
        <mxCell id="9ypPNHimMX1hr6WDNxtJ-121" value="0.*" style="text;html=1;strokeColor=none;fillColor=none;align=center;verticalAlign=middle;whiteSpace=wrap;rounded=0;" vertex="1" parent="1">
          <mxGeometry x="253" y="348.36" width="20" height="10" as="geometry" />
        </mxCell>
        <mxCell id="9ypPNHimMX1hr6WDNxtJ-122" value="0.*" style="text;html=1;strokeColor=none;fillColor=none;align=center;verticalAlign=middle;whiteSpace=wrap;rounded=0;" vertex="1" parent="1">
          <mxGeometry x="313" y="348.36" width="20" height="10" as="geometry" />
        </mxCell>
        <mxCell id="9ypPNHimMX1hr6WDNxtJ-123" value="&lt;p style=&quot;margin: 0px; margin-top: 4px; text-align: center; text-decoration: underline;&quot;&gt;&lt;strong&gt;Serie&lt;br&gt;&lt;/strong&gt;&lt;/p&gt;&lt;hr&gt;&lt;p style=&quot;margin: 0px; margin-left: 8px;&quot;&gt;idSerie&lt;/p&gt;&lt;p style=&quot;margin: 0px; margin-left: 8px;&quot;&gt;nom_s&lt;br&gt;&lt;/p&gt;" style="verticalAlign=top;align=left;overflow=fill;fontSize=12;fontFamily=Helvetica;html=1;strokeColor=#003366;shadow=1;fillColor=#D4E1F5;fontColor=#003366" vertex="1" parent="1">
          <mxGeometry x="573" y="325" width="160" height="68.36" as="geometry" />
        </mxCell>
        <mxCell id="9ypPNHimMX1hr6WDNxtJ-128" value="" style="endArrow=none;html=1;rounded=0;exitX=1;exitY=0.5;exitDx=0;exitDy=0;entryX=0;entryY=0.5;entryDx=0;entryDy=0;" edge="1" parent="1">
          <mxGeometry width="50" height="50" relative="1" as="geometry">
            <mxPoint x="493" y="357.62" as="sourcePoint" />
            <mxPoint x="573" y="357.62" as="targetPoint" />
          </mxGeometry>
        </mxCell>
        <mxCell id="9ypPNHimMX1hr6WDNxtJ-129" value="0.1" style="text;html=1;strokeColor=none;fillColor=none;align=center;verticalAlign=middle;whiteSpace=wrap;rounded=0;" vertex="1" parent="1">
          <mxGeometry x="493" y="346.62" width="20" height="10" as="geometry" />
        </mxCell>
        <mxCell id="9ypPNHimMX1hr6WDNxtJ-130" value="0.*" style="text;html=1;strokeColor=none;fillColor=none;align=center;verticalAlign=middle;whiteSpace=wrap;rounded=0;" vertex="1" parent="1">
          <mxGeometry x="553" y="346.62" width="20" height="10" as="geometry" />
        </mxCell>
        <mxCell id="9ypPNHimMX1hr6WDNxtJ-131" value="&lt;p style=&quot;margin: 0px; margin-top: 4px; text-align: center; text-decoration: underline;&quot;&gt;&lt;strong&gt;Genre&lt;/strong&gt;&lt;/p&gt;&lt;hr&gt;&lt;p style=&quot;margin: 0px; margin-left: 8px;&quot;&gt;idGenre&lt;/p&gt;&lt;p style=&quot;margin: 0px; margin-left: 8px;&quot;&gt;nom_g&lt;br&gt;&lt;/p&gt;" style="verticalAlign=top;align=left;overflow=fill;fontSize=12;fontFamily=Helvetica;html=1;strokeColor=#003366;shadow=1;fillColor=#D4E1F5;fontColor=#003366" vertex="1" parent="1">
          <mxGeometry x="333" y="473.36" width="160" height="68.36" as="geometry" />
        </mxCell>
        <mxCell id="9ypPNHimMX1hr6WDNxtJ-134" value="" style="endArrow=none;html=1;rounded=0;exitX=0.5;exitY=0;exitDx=0;exitDy=0;entryX=0.5;entryY=1;entryDx=0;entryDy=0;" edge="1" parent="1" source="9ypPNHimMX1hr6WDNxtJ-131" target="9ypPNHimMX1hr6WDNxtJ-116">
          <mxGeometry width="50" height="50" relative="1" as="geometry">
            <mxPoint x="263" y="369.36" as="sourcePoint" />
            <mxPoint x="343" y="369.36" as="targetPoint" />
          </mxGeometry>
        </mxCell>
        <mxCell id="9ypPNHimMX1hr6WDNxtJ-135" value="0.*" style="text;html=1;strokeColor=none;fillColor=none;align=center;verticalAlign=middle;whiteSpace=wrap;rounded=0;" vertex="1" parent="1">
          <mxGeometry x="413" y="398.36" width="20" height="10" as="geometry" />
        </mxCell>
        <mxCell id="9ypPNHimMX1hr6WDNxtJ-137" value="0.*" style="text;html=1;strokeColor=none;fillColor=none;align=center;verticalAlign=middle;whiteSpace=wrap;rounded=0;" vertex="1" parent="1">
          <mxGeometry x="413" y="463.36" width="20" height="10" as="geometry" />
        </mxCell>
      </root>
    </mxGraphModel>
  </diagram>
</mxfile>
